<svg xmlns="http://www.w3.org/2000/svg" xmlns:xlink="http://www.w3.org/1999/xlink" version="1.1" x="0px" y="0px" viewBox="0 0 100 100" enable-background="new 0 0 100 100" xml:space="preserve"><g><g><path d="M93.363,33.345l-0.402-6.728c0,0-2.126-3.372-2.402-4.353c-0.277-0.982,4.186-5.018,4.006-6.333    c-0.18-1.313,0.246-6.765-2.805-8.706c0,0-1.218-0.814-3.604,5.937c0,0-0.59,2.503-2.003,3.166    c-1.414,0.663-0.916-0.844-0.802-1.979c0.115-1.136,0.022-2.415-0.401-3.166c-0.422-0.752-2.024-4.596-3.204-5.145    c-1.179-0.549-1.809,1.283-2.403,2.77c-0.594,1.488-1.6,3.822-1.603,5.541c-0.002,1.719,0.348,1.723,0.401,2.771    c0.054,1.047-0.604,1.866-4.808,3.166c-4.203,1.299-3.05-0.621-16.022,10.685c0,0-1.041,1.426-8.012,0.792    c-6.971-0.634-18.659-6.914-24.035-6.729C19.887,25.22,10.842,28.52,10.842,38.49s2.003,10.639,2.003,13.853    c0,3.211-2.403,5.937-2.403,5.937l-2.804,3.165c0,0-2.403,0.491-2.403,2.375c0,1.883,0.5,5.937,2.003,5.937    c0,0,0.822-1.051,0.4-2.375c-0.422-1.325,0.985-0.021,1.603-2.374c0.617-2.354,0-2.376,0-2.376l4.006-4.748    c0,0,2.272-0.148,1.202,4.748c-1.071,4.899-2.926,8.66-2.805,10.291c0.122,1.632,1.106,3.233,1.603,3.958    c0.497,0.723,0.4,9.894,0.4,9.894s3.213,6.878,5.608,7.123c2.396,0.246,11.782,0.639,5.208-5.144    c-6.575-5.784-2.403-2.376-2.403-2.376s0.842-4.574-1.603-6.332l0.401-10.289l2.804-6.729c0,0,2.109-2.208,1.602,0.396    c-0.507,2.604-1.665,1.652-1.201,5.936l6.409,6.333v4.748c0,0,1.867,2.085,3.205,3.959c1.338,1.873,3.605,5.145,3.605,5.145    s1.131,1.735,5.208,1.188c4.078-0.548,3.205-2.771,3.205-2.771s-2.284-3.827-3.605-5.145c-1.321-1.319-4.807-6.332-4.807-6.332    s-1.127-3.874-1.603-4.354c-0.475-0.479,0-2.771,0-2.771s3.659-7.086,4.407-8.311c0.748-1.225,3.875,1.45,16.022,1.582    c0,0,3.427,1.723,4.006,7.521c0.581,5.799,0.401,5.937,0.401,5.937s-0.827,3.222-1.603,4.352    c-0.775,1.132-3.604,3.167-3.604,3.167l6.409,7.52l2.003-1.583h0.801l0.4,3.165h9.214c0,0,1.307-0.804,0.801-1.582    c-0.507-0.778-2.665-5.95-4.407-6.332c0,0,0.066-1.383-0.399-1.583s1.511-2.065-1.602-6.728l0.399-9.104    c0,0,3.413-11.847,3.604-14.643c0.193-2.797,3.325-7.525,7.612-11.082h0.802c0,0,2.393,4.809,8.411,5.146    c4.496,0.267,6.409-1.932,6.409-4.354C95.766,37.269,93.363,33.345,93.363,33.345z M26.589,43.276l1.912,6.267l-5.533-3.706    l-5.533,3.706l1.911-6.267L14.015,39.3l6.714-0.167l2.239-6.164l2.238,6.164L31.92,39.3L26.589,43.276z M48.819,49.542    l-5.533-3.706l-5.533,3.706l1.912-6.267L34.333,39.3l6.715-0.167l2.238-6.164l2.238,6.164l6.715,0.167l-5.332,3.976L48.819,49.542    z M67.576,43.276l1.912,6.267l-5.534-3.706l-5.532,3.706l1.912-6.267L55.003,39.3l6.714-0.167l2.237-6.164l2.239,6.164    l6.715,0.167L67.576,43.276z"></path></g></g></svg>