<svg xmlns="http://www.w3.org/2000/svg" xmlns:xlink="http://www.w3.org/1999/xlink" version="1.1" x="0px" y="0px" viewBox="0 0 100 100" enable-background="new 0 0 100 100" xml:space="preserve"><g><g><path d="M94.036,88.891l-0.047-52.637c0,0,2.904-25.118-38.24-25.118S17.874,35.75,17.874,35.75l0.006,42.868    c0,0-0.184,2.623-2.228,2.623c-2.043,0-2.724-2.19-2.724-2.19v-5.904H5.016c0,0-1.31,16.719,11.378,16.719    c13.994,0,12.36-16.719,12.36-16.719s0.429-5.904,4.945-5.904v21.649h17.804V73.146h24.729v15.745H94.036z M40.233,48.909    l-5.011-3.523l-5.05,3.466l1.771-5.898l-4.826-3.778l6.106-0.122l2.067-5.8l2.002,5.822l6.104,0.192l-4.868,3.722L40.233,48.909z     M59.075,48.933l-4.993-3.548l-5.067,3.441l1.799-5.89l-4.807-3.801l6.106-0.093l2.095-5.79l1.976,5.833l6.102,0.223l-4.886,3.697    L59.075,48.933z M72.682,45.385l-5.041,3.478l1.757-5.903l-4.834-3.766l6.105-0.136l2.054-5.805l2.016,5.818l6.104,0.178    l-4.859,3.733l1.719,5.915L72.682,45.385z"></path></g></g></svg>