<?xml version="1.0" encoding="UTF-8"?>
<svg width="113px" height="113px" viewBox="0 0 113 113" version="1.1" xmlns="http://www.w3.org/2000/svg" xmlns:xlink="http://www.w3.org/1999/xlink">
    <!-- Generator: Sketch 39.1 (31720) - http://www.bohemiancoding.com/sketch -->
    <title>Orange Fox</title>
    <desc>Created with Sketch.</desc>
    <defs></defs>
    <g id="Page-1" stroke="none" stroke-width="1" fill="none" fill-rule="evenodd">
        <path d="M69.1888516,72.0064277 C68.9159472,72.0064277 68.6430428,71.9032828 68.4324551,71.694844 L49.0540947,52.5657505 L28.9472728,41.0221097 C28.6399868,40.8459037 28.4401434,40.5300223 28.4122083,40.1776103 C28.3821244,39.8251983 28.5303953,39.4813818 28.8054485,39.2557522 L68.6365962,6.79302299 C69.094302,6.41912249 69.7711908,6.48573695 70.1472402,6.94774044 C70.5232896,7.40759508 70.4545262,8.08233506 69.9925227,8.45838442 L31.3733284,39.9369387 L50.2445595,50.7714579 C50.324067,50.8165838 50.3971281,50.872454 50.4658914,50.9369196 L69.9430991,70.1648603 C70.3642744,70.5817379 70.3685721,71.2629244 69.9516945,71.6840997 C69.7432557,71.8989851 69.4660536,72.0064277 69.1888516,72.0064277 L69.1888516,72.0064277 Z" id="Shape" fill="#FF530D"></path>
        <path d="M48.1171945,24.9336439 C47.7991642,24.9336439 47.4789851,24.7918196 47.2662486,24.5189152 L30.1291423,2.41795735 C29.765986,1.9495073 29.8519402,1.27476731 30.3203902,0.911611076 C30.7909891,0.548454842 31.4614314,0.632260127 31.8288853,1.10285903 L48.9659917,23.2038168 C49.3291479,23.6722669 49.2431938,24.3470069 48.7747437,24.7101631 C48.579198,24.8605829 48.3471219,24.9336439 48.1171945,24.9336439 L48.1171945,24.9336439 Z" id="Shape" fill="#FF530D"></path>
        <path d="M29.4823374,41.163934 L29.4544023,41.163934 C28.8613187,41.1488921 28.3928687,40.6568046 28.4079106,40.0615722 L29.4071275,1.4832061 C29.4157229,1.17162234 29.5553984,0.883675981 29.7939211,0.68383261 C30.0324438,0.486138092 30.3440276,0.40448166 30.6491648,0.449607583 L69.4810956,6.56739338 C70.0655838,6.66194293 70.4674194,7.21204941 70.3750187,7.79653756 C70.282618,8.38317455 69.7131718,8.77426588 69.1458745,8.69046059 L31.5237481,2.7617739 L30.5567641,40.1217401 C30.5417221,40.7040794 30.0646766,41.163934 29.4823374,41.163934 L29.4823374,41.163934 Z" id="Shape" fill="#FF530D"></path>
        <path d="M69.4703514,72.0386605 C69.1931493,72.0386605 68.9159472,71.9312179 68.7075084,71.7184814 C68.2906308,71.2973061 68.2949285,70.6161195 68.7161038,70.199242 L88.1933115,50.9713012 C88.259926,50.9068356 88.332987,50.8509654 88.4146434,50.8058395 L107.288023,39.9713204 L68.668829,8.49061722 C68.2068255,8.11456787 68.1380622,7.43767903 68.5141116,6.97782439 C68.8880121,6.51582089 69.5649009,6.44920644 70.0247555,6.82525579 L109.853754,39.287985 C110.128808,39.5114657 110.27493,39.8574311 110.246995,40.2098431 C110.219059,40.5622551 110.019216,40.8781365 109.71193,41.0543425 L89.6051083,52.5979833 L70.2267478,71.7270768 C70.0140113,71.9355156 69.7432557,72.0386605 69.4703514,72.0386605 L69.4703514,72.0386605 Z" id="Shape" fill="#FF530D"></path>
        <path d="M109.174717,41.1961669 C108.592377,41.1961669 108.115332,40.7341634 108.10029,40.1518241 L107.133306,2.789709 L69.4810956,8.68831174 C68.9052029,8.77211702 68.346501,8.3810257 68.2541003,7.79223985 C68.1616996,7.20775171 68.5635352,6.65764522 69.1501722,6.56524452 L108.012187,0.477542678 C108.313026,0.432416755 108.626759,0.518370893 108.865282,0.713916558 C109.101656,0.911611076 109.24348,1.20385515 109.252075,1.51114119 L110.251292,40.093805 C110.266334,40.6868886 109.797884,41.1811249 109.204801,41.1961669 C109.194056,41.1961669 109.183312,41.1961669 109.174717,41.1961669 L109.174717,41.1961669 Z" id="Shape" fill="#FF530D"></path>
        <path d="M5.50972818,58.0216894 C5.16806048,58.0216894 4.83069049,57.8583766 4.62225171,57.5510905 C4.28917942,57.0611519 4.41381292,56.3928585 4.90375151,56.0597862 L28.8763607,39.7027137 C29.3684481,39.3739391 30.0367416,39.4942749 30.3698138,39.9863624 C30.7028861,40.4763009 30.5782526,41.1445944 30.088314,41.4776667 L6.11570486,57.8347392 C5.92875461,57.9615215 5.72031582,58.0216894 5.50972818,58.0216894 L5.50972818,58.0216894 Z" id="Shape" fill="#FF530D"></path>
        <path d="M51.8325622,112.961426 C51.7251195,112.961426 51.6198257,112.944235 51.5188296,112.914151 L25.4231532,104.922565 C25.2340541,104.866695 25.0664435,104.757103 24.9332146,104.608832 L4.95532399,82.1339741 C4.78341572,81.9405773 4.68671731,81.6913103 4.68456846,81.431299 L4.43530146,56.958007 C4.43100375,56.5626179 4.64374024,56.1973128 4.98970565,56.0082137 C5.3335222,55.8148169 5.75899519,55.8298589 6.08776976,56.0425954 L71.0776937,97.4961274 C71.3892775,97.693822 71.5740789,98.0354897 71.5740789,98.4029436 L71.5740789,109.265398 C71.5740789,109.802611 71.1786899,110.256019 70.6479231,110.32908 L51.9786842,112.95283 C51.9314094,112.957128 51.8819858,112.961426 51.8325622,112.961426 L51.8325622,112.961426 Z M26.3385648,102.954215 L51.9163675,110.788935 L69.4230766,108.328498 L69.4230766,98.9874317 L6.60564345,58.9199102 L6.82912421,81.005826 L26.3385648,102.954215 L26.3385648,102.954215 Z" id="Shape" fill="#FF530D"></path>
        <path d="M51.4586617,112.211476 C51.1535245,112.211476 50.852685,112.082545 50.6399485,111.831129 L6.37571613,59.6397761 C5.99107136,59.186368 6.04694155,58.5094792 6.50034963,58.1248344 C6.95375771,57.7423385 7.63064655,57.7982087 8.01314246,58.2516167 L52.2773748,110.44297 C52.6620196,110.896378 52.6061494,111.573266 52.1527413,111.957911 C51.9507491,112.127671 51.703631,112.211476 51.4586617,112.211476 L51.4586617,112.211476 Z" id="Shape" fill="#FF530D"></path>
        <path d="M44.7134107,103.09604 C44.1869416,103.09604 43.7270869,102.707097 43.6518771,102.169884 C43.5702206,101.583247 43.9785028,101.041736 44.5672886,100.95793 L70.3513813,97.3371123 C70.9315717,97.2511582 71.4795293,97.6615892 71.5633346,98.2525239 C71.6449911,98.8391609 71.2367089,99.3806719 70.6479231,99.4644772 L44.8638304,103.085295 C44.8144068,103.093891 44.7628343,103.09604 44.7134107,103.09604 L44.7134107,103.09604 Z" id="Shape" fill="#FF530D"></path>
        <path d="M64.6010494,94.8551865 L64.5602212,94.8551865 C63.9692865,94.8315492 63.5051342,94.335164 63.5266227,93.7399316 L64.4936067,67.5196217 C64.5172441,66.928687 64.9276751,66.430153 65.6088617,66.488172 C66.1997964,66.5096606 66.6639487,67.0081946 66.6424602,67.6012781 L65.6754762,93.821588 C65.6518388,94.3996296 65.1769421,94.8551865 64.6010494,94.8551865 L64.6010494,94.8551865 Z" id="Shape" fill="#FF530D"></path>
        <path d="M58.8227825,91.6920743 C58.3392904,91.6920743 57.9009243,91.3675974 57.7805885,90.8755099 L48.1043014,51.8351403 C47.9624771,51.2592476 48.3127402,50.6769083 48.8886329,50.535084 C49.4688234,50.3954085 50.046865,50.7456716 50.1886893,51.3194155 L59.8649764,90.3597851 C60.0068007,90.9378267 59.6565376,91.5180171 59.0806449,91.6598415 C58.9968396,91.68133 58.9087366,91.6920743 58.8227825,91.6920743 L58.8227825,91.6920743 Z" id="Shape" fill="#FF530D"></path>
        <path d="M47.2125272,83.616683 C46.8859015,83.616683 46.5614246,83.4684121 46.350837,83.1847634 C45.9962762,82.7077179 46.0951234,82.0351268 46.5721689,81.6827148 L54.6239228,75.6895626 C55.0988194,75.3350017 55.7714106,75.4317001 56.1281202,75.9108945 C56.4826811,76.3857911 56.3838338,77.0583822 55.9067883,77.412943 L47.8550344,83.4060953 C47.6616376,83.5479197 47.4381569,83.616683 47.2125272,83.616683 L47.2125272,83.616683 Z" id="Shape" fill="#FF530D"></path>
        <path d="M60.8555978,63.5485405 C60.5354187,63.5485405 60.2173884,63.4067162 60.0046519,63.1316629 C59.6414956,62.6632129 59.7274498,61.9884729 60.1980487,61.6253167 L68.9073518,54.8822145 C69.3156339,54.5641842 69.8958243,54.5856727 70.282618,54.9316382 L77.8036051,61.6747403 C78.24412,62.0701293 78.2827994,62.749167 77.8852615,63.1918308 C77.4898725,63.6344947 76.8108348,63.6710252 76.368171,63.2734873 L69.5133284,57.1277664 L61.5109981,63.3229109 C61.3176013,63.4733306 61.0855252,63.5485405 60.8555978,63.5485405 L60.8555978,63.5485405 Z" id="Shape" fill="#FF530D"></path>
        <path d="M67.3472841,96.6022044 C67.2119064,96.6022044 67.070082,96.5764182 66.9368531,96.520548 C66.3888955,96.2949184 66.1288842,95.6674532 66.3545138,95.1194955 L81.8348542,57.660682 C82.0583349,57.1127244 82.687949,56.8505643 83.2380555,57.0783428 C83.7860131,57.3039724 84.0460244,57.9314376 83.8203947,58.4815441 L68.3400544,95.9403575 C68.170295,96.3529374 67.7706083,96.6022044 67.3472841,96.6022044 L67.3472841,96.6022044 Z" id="Shape" fill="#FF530D"></path>
        <path d="M91.5713092,26.9299287 C91.3650192,26.9299287 91.1587293,26.8719097 90.9739279,26.7494251 C90.4818405,26.4185016 90.3486116,25.7502082 90.6773861,25.2581208 L106.783043,1.19311088 C107.113966,0.698874584 107.780111,0.567794523 108.274347,0.896569102 C108.766435,1.22749253 108.899663,1.89578596 108.570889,2.3878734 L92.4652322,26.4528833 C92.2567934,26.764467 91.9172746,26.9299287 91.5713092,26.9299287 L91.5713092,26.9299287 Z" id="Shape" fill="#FF530D"></path>
    </g>
</svg>