<svg xmlns="http://www.w3.org/2000/svg" xmlns:xlink="http://www.w3.org/1999/xlink" version="1.1" x="0px" y="0px" viewBox="0 0 100 100" enable-background="new 0 0 100 100" xml:space="preserve"><g><g><path fill="#000000" d="M55.513,57.124c-0.127,0-0.254-0.048-0.352-0.145l-9.018-8.902l-9.357-5.372    c-0.143-0.082-0.236-0.229-0.249-0.393c-0.014-0.164,0.055-0.324,0.183-0.429l18.536-15.107c0.213-0.174,0.528-0.143,0.703,0.072    c0.175,0.214,0.143,0.528-0.072,0.703L37.915,42.2l8.782,5.042c0.037,0.021,0.071,0.047,0.103,0.077l9.064,8.948    c0.196,0.194,0.198,0.511,0.004,0.707C55.771,57.074,55.642,57.124,55.513,57.124z"></path></g><g><path fill="#000000" d="M45.707,35.218c-0.148,0-0.297-0.066-0.396-0.193l-7.975-10.285c-0.169-0.218-0.129-0.532,0.089-0.701    c0.219-0.169,0.531-0.13,0.702,0.089l7.975,10.285c0.169,0.218,0.129,0.532-0.089,0.701    C45.922,35.184,45.814,35.218,45.707,35.218z"></path></g><g><path fill="#000000" d="M37.035,42.771c-0.004,0-0.009,0-0.013,0c-0.276-0.007-0.494-0.236-0.487-0.513L37,24.305    c0.004-0.145,0.069-0.279,0.18-0.372c0.111-0.092,0.256-0.13,0.398-0.109l18.071,2.847c0.272,0.044,0.459,0.3,0.416,0.572    c-0.043,0.273-0.308,0.455-0.572,0.416l-17.508-2.759l-0.45,17.386C37.528,42.557,37.306,42.771,37.035,42.771z"></path></g><g><path fill="#000000" d="M55.644,57.139c-0.129,0-0.258-0.05-0.355-0.149c-0.194-0.196-0.192-0.513,0.004-0.707l9.064-8.948    c0.031-0.03,0.065-0.056,0.103-0.077l8.783-5.042L55.271,27.566c-0.215-0.175-0.247-0.49-0.072-0.704    c0.174-0.215,0.489-0.246,0.703-0.071l18.535,15.107c0.128,0.104,0.196,0.265,0.183,0.429c-0.013,0.164-0.106,0.311-0.249,0.393    l-9.357,5.372l-9.018,8.902C55.897,57.091,55.771,57.139,55.644,57.139z"></path></g><g><path fill="#000000" d="M74.121,42.786c-0.271,0-0.493-0.215-0.5-0.486l-0.45-17.387l-17.522,2.745    c-0.268,0.039-0.528-0.143-0.571-0.417c-0.043-0.272,0.144-0.528,0.417-0.571l18.085-2.833c0.14-0.021,0.286,0.019,0.397,0.11    c0.11,0.092,0.176,0.228,0.18,0.371l0.465,17.955c0.007,0.276-0.211,0.506-0.487,0.513C74.13,42.786,74.125,42.786,74.121,42.786z    "></path></g><g><path fill="#000000" stroke="#231F20" stroke-linecap="round" stroke-linejoin="round" stroke-miterlimit="10" d="M73.424,24.448"></path></g><g><path fill="#000000" d="M25.879,50.616c-0.159,0-0.316-0.076-0.413-0.219c-0.155-0.228-0.097-0.539,0.131-0.694l11.156-7.612    c0.229-0.153,0.54-0.097,0.695,0.132c0.155,0.228,0.097,0.539-0.131,0.694l-11.156,7.612    C26.074,50.588,25.977,50.616,25.879,50.616z"></path></g><g><path fill="#000000" d="M47.436,76.183c-0.05,0-0.099-0.008-0.146-0.022l-12.144-3.719c-0.088-0.026-0.166-0.077-0.228-0.146    l-9.297-10.459c-0.08-0.09-0.125-0.206-0.126-0.327l-0.116-11.389c-0.002-0.184,0.097-0.354,0.258-0.442    c0.16-0.09,0.358-0.083,0.511,0.016l30.244,19.291c0.145,0.092,0.231,0.251,0.231,0.422v5.055c0,0.25-0.184,0.461-0.431,0.495    l-8.688,1.221C47.482,76.181,47.459,76.183,47.436,76.183z M35.572,71.526l11.903,3.646l8.147-1.145v-4.347L26.389,51.034    l0.104,10.278L35.572,71.526z"></path></g><g><path fill="#000000" d="M47.262,75.834c-0.142,0-0.282-0.06-0.381-0.177L26.282,51.369c-0.179-0.211-0.153-0.526,0.058-0.705    c0.211-0.178,0.526-0.152,0.704,0.059l20.599,24.288c0.179,0.211,0.153,0.526-0.058,0.705    C47.491,75.795,47.376,75.834,47.262,75.834z"></path></g><g><path fill="#000000" d="M44.123,71.592c-0.245,0-0.459-0.181-0.494-0.431c-0.038-0.273,0.152-0.525,0.426-0.564l11.999-1.685    c0.27-0.04,0.525,0.151,0.564,0.426c0.038,0.273-0.152,0.525-0.426,0.564l-11.999,1.685C44.17,71.591,44.146,71.592,44.123,71.592    z"></path></g><g><path fill="#000000" d="M53.378,67.757c-0.006,0-0.012,0-0.019,0c-0.275-0.011-0.491-0.242-0.481-0.519l0.45-12.202    c0.011-0.275,0.202-0.507,0.519-0.48c0.275,0.01,0.491,0.242,0.481,0.518l-0.45,12.202C53.867,67.545,53.646,67.757,53.378,67.757    z"></path></g><g><path fill="#000000" d="M50.689,66.285c-0.225,0-0.429-0.151-0.485-0.38l-4.503-18.168c-0.066-0.268,0.097-0.539,0.365-0.605    c0.27-0.065,0.539,0.098,0.605,0.365l4.503,18.168c0.066,0.269-0.097,0.539-0.365,0.605C50.77,66.28,50.729,66.285,50.689,66.285z    "></path></g><g><path fill="#000000" d="M45.286,62.527c-0.152,0-0.303-0.069-0.401-0.201c-0.165-0.222-0.119-0.535,0.103-0.699l3.747-2.789    c0.221-0.165,0.534-0.12,0.7,0.103c0.165,0.221,0.119,0.534-0.103,0.699l-3.747,2.789C45.495,62.495,45.391,62.527,45.286,62.527z    "></path></g><g><path fill="#000000" d="M51.635,53.188c-0.149,0-0.297-0.066-0.396-0.194c-0.169-0.218-0.129-0.532,0.09-0.701l4.053-3.138    c0.19-0.148,0.46-0.138,0.64,0.023l3.5,3.138c0.205,0.184,0.223,0.5,0.038,0.706c-0.184,0.206-0.5,0.223-0.706,0.038L55.664,50.2    l-3.724,2.883C51.85,53.153,51.742,53.188,51.635,53.188z"></path></g><g><path fill="#000000" d="M54.656,68.57c-0.063,0-0.129-0.012-0.191-0.038c-0.255-0.105-0.376-0.397-0.271-0.652l7.204-17.432    c0.104-0.255,0.397-0.377,0.653-0.271c0.255,0.105,0.376,0.397,0.271,0.653l-7.204,17.432    C55.039,68.454,54.853,68.57,54.656,68.57z"></path></g><g><path fill="#000000" d="M65.929,36.147c-0.096,0-0.192-0.027-0.278-0.084c-0.229-0.154-0.291-0.465-0.138-0.694l7.495-11.199    c0.154-0.23,0.464-0.291,0.694-0.138c0.229,0.154,0.291,0.465,0.138,0.694l-7.495,11.199C66.248,36.07,66.09,36.147,65.929,36.147    z"></path></g></g></svg>