<svg xmlns="http://www.w3.org/2000/svg" xmlns:xlink="http://www.w3.org/1999/xlink" version="1.1" x="0px" y="0px" viewBox="0 0 100 100" enable-background="new 0 0 100 100" xml:space="preserve"><line fill="none" stroke="#000000" stroke-width="2" stroke-miterlimit="10" x1="20" y1="30" x2="20" y2="70"></line><line fill="none" stroke="#000000" stroke-width="2" stroke-miterlimit="10" x1="20" y1="50" x2="80" y2="50"></line><line fill="none" stroke="#000000" stroke-width="2" stroke-miterlimit="10" x1="50" y1="30" x2="50" y2="70"></line><line fill="none" stroke="#000000" stroke-width="2" stroke-miterlimit="10" x1="80" y1="30" x2="80" y2="51"></line><circle fill="none" stroke="#000000" stroke-width="2" stroke-miterlimit="10" cx="20" cy="20" r="10"></circle><circle fill="none" stroke="#000000" stroke-width="2" stroke-miterlimit="10" cx="50" cy="20" r="10"></circle><circle fill="none" stroke="#000000" stroke-width="2" stroke-miterlimit="10" cx="80" cy="20" r="10"></circle><circle fill="none" stroke="#000000" stroke-width="2" stroke-miterlimit="10" cx="20" cy="80" r="10"></circle><circle fill="none" stroke="#000000" stroke-width="2" stroke-miterlimit="10" cx="50" cy="80" r="10"></circle><polyline fill="none" stroke="#000000" stroke-width="2" stroke-miterlimit="10" points="44,20 48,24 56,16 "></polyline><line fill="none" stroke="#000000" stroke-width="2" stroke-miterlimit="10" x1="16" y1="16" x2="24" y2="24"></line><line fill="none" stroke="#000000" stroke-width="2" stroke-miterlimit="10" x1="16" y1="24" x2="24" y2="16"></line><line fill="none" stroke="#000000" stroke-width="2" stroke-miterlimit="10" x1="76" y1="16" x2="84" y2="24"></line><line fill="none" stroke="#000000" stroke-width="2" stroke-miterlimit="10" x1="76" y1="24" x2="84" y2="16"></line><line fill="none" stroke="#000000" stroke-width="2" stroke-miterlimit="10" x1="16" y1="76" x2="24" y2="84"></line><line fill="none" stroke="#000000" stroke-width="2" stroke-miterlimit="10" x1="16" y1="84" x2="24" y2="76"></line><line fill="none" stroke="#000000" stroke-width="2" stroke-miterlimit="10" x1="46" y1="76" x2="54" y2="84"></line><line fill="none" stroke="#000000" stroke-width="2" stroke-miterlimit="10" x1="46" y1="84" x2="54" y2="76"></line></svg>