<svg xmlns="http://www.w3.org/2000/svg" xmlns:xlink="http://www.w3.org/1999/xlink" version="1.1" x="0px" y="0px" viewBox="0 0 100 100" enable-background="new 0 0 100 100" xml:space="preserve"><path d="M50,7.98C26.793,7.98,7.98,26.793,7.98,50S26.793,92.02,50,92.02S92.02,73.207,92.02,50S73.207,7.98,50,7.98z M14.503,50  c0-19.726,15.991-35.717,35.717-35.717c3.474,0,6.831,0.498,10.006,1.423L33.01,81.303C21.978,75.225,14.503,63.485,14.503,50z   M50.22,85.717c-4.052,0-7.946-0.676-11.576-1.919L65.97,17.937C77.797,23.757,85.937,35.927,85.937,50  C85.937,69.727,69.946,85.717,50.22,85.717z"></path><path d="M47.789,43l-6.846,17H37v9.135L36.835,70H34V59.662v-3.489v-6.292l-3.36-4.158l-4.81,5.889l-4.163-2.397L25.919,38h1.401  l-2.782-7.393c1.63,0.255,3.078,1.277,3.688,2.936C28.813,35.138,28.478,37,27.494,38H29v-7.746c1,0.802,2.248,2.171,2.248,3.938  c0,1.677-1.158,3.808-2.387,3.808h1.107l8.019,5H47.789z"></path><path d="M82,57v2.662c0,2.739-2.262,4.959-5,4.959s-5-2.22-5-4.959v-6.479c0-0.087-0.564-0.132-0.847-0.132  c-2.282,0-4.153,2.96-4.153,6.611V70h-7V60H49.613l6.846-17h1.271c0.273,5,4.27,8.381,8.27,8.654v-0.828  C62,50.554,58.83,47,58.559,43h-0.021c0-4,3.7-8.178,8.265-8.178s8.266,3.743,8.266,8.307c0,0.062,0.012,16.51,0.012,16.51  c0,0.913,0.547,1.665,1.461,1.665c0.912,0,1.459-0.729,1.459-1.643V57H82z"></path></svg>